<svg width="500" height="500" viewBox="0 0 500 500" fill="none" xmlns="http://www.w3.org/2000/svg">
<g clip-path="url(#clip0_2177_4253)">
<path d="M550 -50H-50V550H550V-50Z" fill="white"/>
<path d="M550 -50H-50V550H550V-50Z" fill="#485C11"/>
<mask id="mask0_2177_4253" style="mask-type:luminance" maskUnits="userSpaceOnUse" x="157" y="82" width="185" height="333">
<path d="M341.332 82.6667H157.332V414.667H341.332V82.6667Z" fill="white"/>
</mask>
<g mask="url(#mask0_2177_4253)">
<path d="M162 153.438C162 149.26 163.604 146.474 166.813 145.083C170.021 143.698 173.984 143 178.708 143C183.719 143 189.083 143.417 194.792 144.25C200.5 145.083 205.443 145.5 209.625 145.5C213.802 145.5 218.75 145.083 224.458 144.25C230.167 143.417 235.667 143 240.958 143C245.693 143 249.656 143.698 252.854 145.083C256.063 146.474 257.667 149.26 257.667 153.438C257.667 156.495 256.964 158.792 255.563 160.333C254.172 161.865 252.505 163.813 250.563 166.188C248.615 168.552 246.943 172.24 245.542 177.25C244.151 182.266 243.458 189.641 243.458 199.375V325.104C243.458 328.729 244.568 331.177 246.792 332.438C249.026 333.688 251.531 334.313 254.313 334.313C257.104 334.313 259.469 334.313 261.417 334.313C267.542 334.313 273.177 332.083 278.333 327.625C283.484 323.167 288.219 317.667 292.542 311.125C296.859 304.583 300.896 298.042 304.646 291.5C308.406 284.948 312.172 279.448 315.938 275C319.698 270.542 323.526 268.313 327.417 268.313C334.094 268.313 337.089 272 336.396 279.375C335.698 286.75 332.708 299.911 327.417 318.854C325.469 326.37 324.359 332.979 324.083 338.688C323.802 344.396 322.823 348.854 321.146 352.063C319.479 355.255 315.583 356.854 309.458 356.854C288.568 356.854 269.979 356.438 253.688 355.604C237.406 354.771 222.583 354.354 209.208 354.354C202.526 354.354 196.26 354.771 190.417 355.604C184.568 356.438 179.417 356.854 174.958 356.854C171.052 356.854 167.917 356.156 165.542 354.771C163.177 353.385 162 350.599 162 346.417C162 343.349 162.693 341.052 164.083 339.521C165.484 337.995 167.156 336.052 169.104 333.688C171.063 331.313 172.734 327.62 174.125 322.604C175.51 317.594 176.208 310.219 176.208 300.479V199.375C176.208 189.641 175.51 182.266 174.125 177.25C172.734 172.24 171.063 168.552 169.104 166.188C167.156 163.813 165.484 161.865 164.083 160.333C162.693 158.792 162 156.495 162 153.438Z" fill="white"/>
</g>
</g>
<defs>
<clipPath id="clip0_2177_4253">
<rect width="500" height="500" fill="white"/>
</clipPath>
</defs>
</svg>
